<svg viewBox="0 0 100 32" version="1.1" xmlns="http://www.w3.org/2000/svg" preserveAspectRatio="none" class="SparkLine__Svg-sc-15clgaw-0 cojVTF"><path d="M 0,15.625154187906194 C 1.1165454746447342e-17,15.807499901857696 -0.19999999999999998,16.398361885425352 0,16.536882757663708 C 0.19999999999999998,16.675403629902064 0.5999999999999999,15.835055129130964 1,16.31775854909798 C 1.4,16.800461969064997 1.5999999999999996,18.326483058678352 2,18.950399857498788 C 2.4,19.574316656319223 2.6,19.26737090220293 3,19.437342543200156 C 3.4,19.60731418419738 3.6,19.748527563050978 4,19.800258062484914 C 4.4,19.85198856191885 4.8,19.895011380384776 5,19.695995040369844 C 5.2,19.496978700354912 4.8,18.7886203110964 5,18.80517636241026 C 5.2,18.821732413724124 5.6,19.881949858933048 6,19.77877529693916 C 6.4,19.67560073494527 6.6,18.72273983008985 7,18.289303552440813 C 7.4,17.855867274791777 7.6,17.537922344716133 8,17.61159390869397 C 8.4,17.685265472671805 8.6,18.537587034773512 9,18.65766137232999 C 9.4,18.777735709886468 9.8,18.641277183140577 10,18.211965596476357 C 10.2,17.782654009812138 9.8,16.994036008475067 10,16.51110343900889 C 10.2,16.028170869542716 10.6,15.899961724766284 11,15.797302749145482 C 11.4,15.69464377352468 11.6,15.9766122322332 12,15.997808560904879 C 12.4,16.019004889576557 12.6,15.956447076307576 13,15.903284392503881 C 13.4,15.850121708700186 13.6,15.50845980546208 14,15.731995141886404 C 14.4,15.95553047831073 14.8,16.738648891668234 15,17.020961074625507 C 15.2,17.30327325758278 14.8,16.789290930981288 15,17.14355605667277 C 15.2,17.497821182364255 15.6,18.587770775088337 16,18.792286703082926 C 16.4,18.996802631077514 16.6,18.44535436136438 17,18.16613569664572 C 17.4,17.886917031927062 17.6,17.481895292173075 18,17.396193379489628 C 18.4,17.31049146680618 18.6,17.818630481179287 19,17.737626133228485 C 19.4,17.656621785277682 19.8,17.059400903108614 20,16.99117163973561 C 20.2,16.92294237636261 19.8,17.264031405852712 20,17.396479816363467 C 20.2,17.52892822687422 20.6,17.67604220533079 21,17.653413692289384 C 21.4,17.630785179247976 21.6,17.502862471345566 22,17.283337251156436 C 22.4,17.063812030967306 22.6,16.760876393086203 23,16.55578759134373 C 23.4,16.350698789601257 23.6,16.392232136322836 24,16.257893242444062 C 24.4,16.123554348565293 24.8,15.94791125746416 25,15.884093121949872 C 25.2,15.820274986435585 24.8,16.110492827113475 25,15.938802564872622 C 25.2,15.767112302631771 25.6,15.418633201794021 26,15.025641810745617 C 26.4,14.632650419697212 26.6,13.962731858921629 27,13.973845609630601 C 27.4,13.984959360339573 27.6,14.897890964967596 28,15.081210564290476 C 28.4,15.264530163613356 28.6,14.994420191485968 29,14.890443606245004 C 29.4,14.78646702100404 29.8,14.604293169176957 30,14.561327638085654 C 30.2,14.518362106994351 29.8,14.662840866210688 30,14.675615950788487 C 30.2,14.688391035366285 30.6,14.558291407221809 31,14.62520306097465 C 31.4,14.692114714727492 31.6,14.889097352937428 32,15.010174219552697 C 32.4,15.131251086167966 32.6,15.108679860501297 33,15.230587394050994 C 33.4,15.352494927600691 33.6,15.52309672972054 34,15.619711887301184 C 34.4,15.716327044881828 34.8,16.126361429929826 35,15.713663181954209 C 35.2,15.30096493397859 34.8,13.902465540644156 35,13.556220647423089 C 35.2,13.209975754202022 35.6,13.748763514086985 36,13.982438715848874 C 36.4,14.216113917610762 36.6,14.601657949936635 37,14.724596656232537 C 37.4,14.847535362528438 37.6,14.399777241182338 38,14.597132247328382 C 38.4,14.794487253474426 38.6,15.664804451613591 39,15.711371686962757 C 39.4,15.757938922311922 39.8,15.081801655352534 40,14.829968424074213 C 40.2,14.578135192795893 39.8,14.223251363505806 40,14.452205530571156 C 40.2,14.681159697636506 40.6,15.54094345038747 41,15.974739259400959 C 41.4,16.408535068414448 41.6,16.400267916945644 42,16.6211845756386 C 42.4,16.842101234331558 42.6,16.36053966127641 43,17.079322552865737 C 43.4,17.798105444455064 43.6,19.555104774662656 44,20.215099033585247 C 44.4,20.875093292507838 44.8,20.650932925078898 45,20.379293847478685 C 45.2,20.107654769878472 44.8,19.237422256243452 45,18.856903645584175 C 45.2,18.4763850349249 45.6,18.392852358625923 46,18.47670079418231 C 46.4,18.560549229738697 46.6,18.315089465122856 47,19.276145823366104 C 47.4,20.23720218160935 47.6,21.952865754473272 48,23.281982585398545 C 48.4,24.611099416323817 48.6,25.27786814658878 49,25.921729977992463 C 49.4,26.565591809396146 49.8,26.36149650751121 50,26.501291742416967 C 50.2,26.641086977322725 49.8,26.43452301215192 50,26.620706152521258 C 50.2,26.806889292890595 50.6,27.156348674767912 51,27.43220744426366 C 51.4,27.70806621375941 51.6,28.804210123433148 52,28 C 52.4,27.195789876566852 52.6,24.17047172519381 53,23.411156827097926 C 53.4,22.651841929002043 53.6,23.908908238446067 54,24.203425509520585 C 54.4,24.497942780595103 54.8,24.633891493636913 55,24.88374318247052 C 55.2,25.13359487130413 54.8,25.11131949095776 55,25.45268395368862 C 55.2,25.79404841641948 55.6,26.36275954454123 56,26.59056549612482 C 56.4,26.81837144770841 56.6,26.75476031001823 57,26.59171371160658 C 57.4,26.42866711319493 57.6,26.0220840110994 58,25.775332504066565 C 58.4,25.528580997033732 58.6,25.53357573437947 59,25.35795617644242 C 59.4,25.182336618505374 59.8,24.792517462443712 60,24.897234714381327 C 60.2,25.00195196631894 59.8,25.735432016074977 60,25.881542436130495 C 60.2,26.027652856186013 60.6,25.780155009090063 61,25.627786814658908 C 61.4,25.475418620227753 61.6,25.307090230599925 62,25.119701463974714 C 62.4,24.932312697349502 62.6,24.74670366472104 63,24.690842981532843 C 63.4,24.634982298344646 63.6,24.901483111664007 64,24.840398048033723 C 64.4,24.77931298440344 64.8,24.936848148502474 65,24.385417663381418 C 65.2,23.83398717826036 64.8,22.3851114725863 65,22.08324562242844 C 65.2,21.78137977227058 65.6,22.80145440627695 66,22.876088412592125 C 66.4,22.9507224189073 66.6,22.444589034542062 67,22.456415654004317 C 67.4,22.468242273466572 67.6,22.889063247536136 68,22.935221509903393 C 68.4,22.98137977227065 68.6,22.520256434790937 69,22.687206965840595 C 69.4,22.854157496890252 69.8,23.46144866519954 70,23.769974165151684 C 70.2,24.078499665103827 69.8,24.258999138838345 70,24.22983446560131 C 70.2,24.200669792364277 70.6,23.555372691608365 71,23.624150798966518 C 71.4,23.69292890632467 71.6,24.770414314419607 72,24.573725002392067 C 72.4,24.377035690364526 72.6,23.13259975121996 73,22.640704238828814 C 73.4,22.148808726437668 73.6,22.382240933881963 74,22.114247440436344 C 74.4,21.846253946990725 74.8,21.59077600229636 75,21.300736771600725 C 75.2,21.010697540905092 74.8,21.021031480241117 75,20.664051286958173 C 75.2,20.30707109367523 75.6,22.848646062577643 76,19.515835805186008 C 76.4,16.183025547794372 76.6,6.011214237871966 77,4 C 77.4,1.988785762128034 77.6,7.29176155391823 78,9.459764615826177 C 78.4,11.627767677734125 78.6,12.935814754568906 79,14.84001530953974 C 79.4,16.744215864510576 79.8,17.95099033585307 80,18.980767390680352 C 80.2,20.010544445507634 79.8,19.948483398717762 80,19.98890058367614 C 80.2,20.02931776863452 80.6,18.984441680222005 81,19.182853315472244 C 81.4,19.381264950722482 81.6,21.80925270309068 82,20.980958759927326 C 82.4,20.15266481676397 82.6,15.989235479858314 83,15.04138359965546 C 83.4,14.093531719452605 83.6,16.194191943354717 84,16.241699358913053 C 84.4,16.28920677447139 84.8,15.71294612955701 85,15.27892067744714 C 85.2,14.84489522533727 84.8,14.4171849583771 85,14.071572098363706 C 85.2,13.725959238350313 85.6,13.410831499378062 86,13.550856377380175 C 86.4,13.690881255382287 86.6,14.62495454980381 87,14.771696488374264 C 87.4,14.918438426944718 87.6,14.10779829681364 88,14.284566070232444 C 88.4,14.461333843651248 88.6,15.345746818486184 89,15.65553535546829 C 89.4,15.965323892450396 89.8,15.578375275093219 90,15.833508755142972 C 90.2,16.088642235192726 89.8,17.33009281408466 90,16.931202755717056 C 90.2,16.53231269734945 90.6,14.410812362453344 91,13.839058463304937 C 91.4,13.26730456415653 91.6,14.16848148502525 92,14.072433259975025 C 92.4,13.9763850349248 92.6,14.065716199406769 93,13.35881733805381 C 93.4,12.651918476700853 93.6,10.723547985838692 94,10.537938953210233 C 94.4,10.352329920581774 94.8,12.072299301502287 95,12.430772174911516 C 95.2,12.789245048320744 94.8,12.370605683666579 95,12.330303320256377 C 95.2,12.290000956846175 95.6,12.252224667495927 96,12.229260357860504 C 96.4,12.20629604822508 96.6,11.507377284470428 97,12.215481772079261 C 97.4,12.923586259688095 97.6,14.995655918093936 98,15.769782795904673 C 98.4,16.54390967371541 98.8,16.022849488087292 99,16.086116161132946" class="SparkLine__Path-sc-15clgaw-1 geFRMZ"></path></svg>